<?xml version="1.0" standalone="no"?>
<!DOCTYPE svg PUBLIC "-//W3C//DTD SVG 20010904//EN"
 "http://www.w3.org/TR/2001/REC-SVG-20010904/DTD/svg10.dtd">
<svg version="1.0" xmlns="http://www.w3.org/2000/svg"
 width="225.000000pt" height="225.000000pt" viewBox="0 0 225.000000 225.000000"
 preserveAspectRatio="xMidYMid meet">

<g transform="translate(0.000000,225.000000) scale(0.100000,-0.100000)"
fill="#000000" stroke="none">
<path d="M870 2215 c-187 -30 -326 -93 -384 -173 -45 -61 -64 -122 -83 -262
-8 -63 -19 -131 -23 -150 -5 -19 -12 -47 -15 -62 -5 -24 -10 -28 -38 -28 -49
0 -66 -18 -77 -85 -16 -90 -20 -108 -27 -101 -3 3 -12 1 -20 -5 -20 -17 -16
-66 7 -82 15 -10 21 -30 26 -84 l7 -71 -30 -16 c-43 -21 -119 -110 -134 -153
-23 -72 9 -185 69 -235 15 -12 33 -34 40 -48 7 -14 36 -56 65 -94 71 -94 77
-105 77 -150 0 -61 36 -167 79 -233 86 -133 200 -176 407 -154 126 13 195 41
234 96 44 61 126 59 190 -5 51 -51 130 -79 246 -87 155 -10 276 26 342 102 62
70 121 220 122 310 0 17 10 41 21 55 11 14 43 59 71 100 28 41 68 94 89 117
49 53 69 102 69 167 0 75 -32 130 -107 186 -67 49 -69 54 -56 145 4 35 11 49
25 53 27 7 26 82 -1 89 -15 4 -22 20 -30 69 -19 107 -24 114 -74 114 l-44 0
-12 58 c-7 31 -16 98 -21 149 -25 273 -115 383 -369 450 -87 24 -117 26 -326
29 -162 2 -255 -1 -315 -11z m533 -49 c235 -39 358 -120 401 -267 17 -57 42
-247 33 -255 -3 -3 -47 1 -99 10 -181 30 -367 39 -700 33 -178 -3 -352 -10
-388 -16 -36 -7 -76 -14 -90 -16 -14 -3 -49 -8 -78 -11 l-54 -7 7 69 c18 177
53 273 125 338 69 62 189 105 350 125 111 14 397 12 493 -3z m277 -606 c102
-18 186 -33 188 -35 2 -2 11 -216 15 -385 2 -75 -1 -90 -23 -125 l-25 -40 -3
29 c-2 16 4 43 14 61 15 29 16 41 6 103 -7 39 -12 89 -12 111 0 56 -16 52 -24
-6 -8 -64 -42 -131 -75 -147 -51 -26 -157 24 -359 168 -140 100 -173 116 -244
116 -70 0 -127 -28 -263 -129 -130 -97 -283 -176 -317 -166 -56 17 -81 60 -99
169 -16 100 -24 80 -33 -81 -6 -104 -5 -126 9 -147 9 -14 15 -39 13 -58 l-3
-33 -29 48 -29 49 11 191 c6 106 8 206 6 222 -9 51 9 60 159 84 218 36 292 40
622 36 294 -3 320 -5 495 -35z m-1293 -242 c-4 -106 -9 -203 -13 -215 -7 -27
-44 -31 -68 -8 -30 31 -34 243 -6 363 l12 52 40 0 41 0 -6 -192z m1583 172 c6
-10 15 -66 21 -123 12 -116 1 -253 -23 -268 -22 -15 -55 -10 -63 9 -4 9 -10
104 -13 210 l-5 192 36 0 c26 0 39 -6 47 -20z m-729 -115 c19 -10 86 -56 149
-102 118 -88 225 -147 319 -178 30 -10 65 -28 78 -41 42 -42 32 -84 -63 -251
l-30 -53 -75 38 c-61 30 -98 61 -212 174 -75 76 -155 150 -178 165 -49 32
-116 36 -169 8 -19 -10 -91 -75 -160 -145 -69 -70 -143 -141 -165 -157 -35
-26 -136 -83 -149 -83 -2 0 -29 44 -59 98 -91 160 -80 208 61 251 83 25 175
79 313 181 138 104 178 122 250 117 31 -3 71 -13 90 -22z m835 -331 c59 -48
77 -91 72 -169 -2 -37 -11 -73 -22 -89 -24 -38 -29 -28 -15 32 18 74 2 102
-91 168 -105 73 -110 80 -68 93 46 13 74 5 124 -35z m-1717 21 c7 -7 -21 -30
-106 -87 -92 -62 -105 -98 -78 -208 l7 -25 -21 23 c-67 76 -41 213 54 284 35
26 46 29 89 24 27 -3 51 -8 55 -11z m894 -49 c23 -13 67 -46 97 -73 78 -67
129 -107 170 -129 19 -10 42 -24 50 -30 17 -12 46 -23 148 -55 93 -29 141 -69
167 -140 59 -160 -29 -406 -169 -473 -55 -26 -151 -39 -247 -32 -96 6 -162 26
-197 59 -20 19 -23 30 -20 77 2 34 9 61 20 71 9 10 22 43 28 74 10 48 10 58
-4 68 -8 7 -16 30 -18 52 -2 32 -7 41 -25 43 -18 3 -20 7 -13 32 6 22 4 32 -9
44 -23 21 -58 20 -70 -1 -8 -15 -13 -16 -28 -5 -34 23 -46 25 -72 10 -26 -14
-29 -28 -16 -60 5 -12 1 -17 -17 -20 -20 -3 -23 -10 -26 -47 -2 -26 -10 -50
-19 -56 -13 -10 -13 -18 3 -74 12 -44 23 -65 37 -70 12 -5 16 -10 10 -14 -8
-5 -8 -19 -1 -47 9 -33 7 -45 -7 -66 -49 -76 -288 -107 -429 -57 -67 24 -139
91 -171 159 -77 162 -65 347 27 417 19 15 81 43 138 63 149 51 175 67 363 227
72 61 97 74 162 86 47 9 82 1 138 -33z m-849 -10 c12 -18 47 -71 78 -118 69
-102 84 -138 66 -150 -42 -26 -73 10 -191 224 l-29 52 23 17 c27 20 25 20 53
-25z m1536 8 c0 -20 -22 -62 -93 -174 -74 -118 -69 -113 -100 -101 -25 10 -26
12 -15 43 7 18 47 86 91 150 70 104 81 117 98 107 10 -5 19 -17 19 -25z
m-1675 -145 c19 -38 58 -106 86 -149 l51 -80 -17 -47 c-10 -27 -19 -54 -21
-62 -16 -53 -194 243 -194 322 0 26 35 87 49 87 6 0 26 -32 46 -71z m1821 45
c29 -44 21 -104 -26 -191 -50 -93 -131 -206 -141 -196 -3 5 -14 32 -24 61
l-17 52 48 83 c108 189 125 217 134 217 5 0 17 -12 26 -26z"/>
<path d="M825 1524 c-93 -7 -204 -17 -245 -21 l-75 -8 1 -40 c1 -50 31 -147
59 -189 14 -22 30 -32 52 -34 37 -4 60 7 190 91 54 35 133 83 175 107 82 46
94 60 78 91 -12 22 0 21 -235 3z m-276 -101 c7 -32 24 -82 37 -112 13 -30 22
-57 18 -60 -16 -17 -70 100 -89 197 -5 24 -3 32 8 32 9 0 18 -20 26 -57z"/>
<path d="M1216 1521 c-18 -28 4 -56 68 -89 35 -18 89 -48 118 -66 29 -18 91
-56 137 -84 94 -58 127 -64 160 -28 31 33 71 147 71 201 0 52 4 51 -185 60
-66 3 -174 8 -241 11 -89 5 -123 4 -128 -5z m535 -113 c-13 -65 -32 -110 -59
-140 -26 -30 -35 -20 -14 15 12 17 31 72 43 120 15 62 25 85 32 78 8 -8 7 -29
-2 -73z"/>
<path d="M1062 690 c-40 -25 -81 -87 -122 -189 -32 -80 -60 -121 -84 -121 -7
0 -30 11 -50 25 -90 61 -146 70 -204 35 -90 -55 -94 -162 -10 -236 46 -40 119
-58 212 -52 88 6 143 30 163 74 15 30 14 37 -3 91 -14 44 -24 58 -39 59 -11 1
-23 2 -28 3 -4 1 4 18 17 39 13 20 39 73 57 116 39 95 87 153 135 162 91 17
153 -30 204 -155 18 -42 43 -95 56 -118 l24 -42 -27 -3 c-34 -4 -56 -44 -57
-106 -1 -36 4 -48 27 -68 37 -32 97 -46 190 -46 65 1 85 5 127 28 87 47 119
128 81 202 -28 56 -68 75 -141 70 -45 -3 -64 -10 -97 -37 -29 -23 -49 -32 -69
-29 -29 3 -37 15 -121 193 -46 97 -81 125 -157 125 -33 0 -62 -7 -84 -20z"/>
</g>
</svg>
